<svg width="67" height="12" viewBox="0 0 67 12" fill="none" xmlns="http://www.w3.org/2000/svg">
<path d="M2 7.00033C2.55228 7.00033 3 7.44804 3 8.00033V10.0003C2.99982 10.5525 2.55218 11.0003 2 11.0003H1C0.447824 11.0003 0.000175969 10.5525 0 10.0003V8.00033C0 7.44804 0.447715 7.00033 1 7.00033H2ZM6.66699 5.00033C7.21913 5.0005 7.66699 5.44815 7.66699 6.00033V10.0003C7.66682 10.5524 7.21902 11.0002 6.66699 11.0003H5.66699C5.11482 11.0003 4.66717 10.5525 4.66699 10.0003V6.00033C4.66699 5.44804 5.11471 5.00033 5.66699 5.00033H6.66699ZM11.333 2.66634C11.8852 2.66634 12.3328 3.11421 12.333 3.66634V10.0003C12.3328 10.5525 11.8852 11.0003 11.333 11.0003H10.333C9.78098 11.0002 9.33318 10.5524 9.33301 10.0003V3.66634C9.33318 3.11432 9.78098 2.66652 10.333 2.66634H11.333ZM16 0.333336C16.5523 0.333336 17 0.781051 17 1.33334V10.0003C16.9998 10.5525 16.5522 11.0003 16 11.0003H15C14.4478 11.0003 14.0002 10.5525 14 10.0003V1.33334C14 0.781051 14.4477 0.333336 15 0.333336H16Z" fill="white"/>
<path d="M27.4482 8.59335C28.7289 7.51108 30.6051 7.51108 31.8857 8.59335C31.9501 8.65156 31.9875 8.73417 31.9893 8.82089C31.9909 8.90753 31.9564 8.99066 31.8945 9.05136L29.8897 11.0738C29.8309 11.1332 29.7506 11.1666 29.667 11.1666C29.5834 11.1666 29.5031 11.1332 29.4443 11.0738L27.4385 9.05136C27.3769 8.99066 27.343 8.90732 27.3447 8.82089C27.3466 8.73421 27.3839 8.65151 27.4482 8.59335ZM24.7725 5.89609C27.5316 3.33171 31.8043 3.33176 34.5635 5.89609C34.6258 5.95622 34.6612 6.03904 34.6621 6.12558C34.6629 6.21193 34.6293 6.29478 34.5684 6.35605L33.4092 7.52695C33.2897 7.64625 33.0971 7.64811 32.9746 7.53183C32.0685 6.71207 30.8893 6.25832 29.667 6.25839C28.4456 6.25892 27.2677 6.71276 26.3623 7.53183C26.2398 7.64817 26.0462 7.64645 25.9268 7.52695L24.7686 6.35605C24.7075 6.29485 24.6731 6.21199 24.6738 6.12558C24.6747 6.03911 24.7103 5.9562 24.7725 5.89609ZM22.0967 3.20566C26.3285 -0.84641 33.0044 -0.846257 37.2363 3.20566C37.2976 3.26586 37.3325 3.34832 37.333 3.43417C37.3335 3.51993 37.2998 3.60281 37.2393 3.66367L36.0791 4.83359C35.9595 4.95368 35.765 4.95476 35.6436 4.83652C34.0312 3.30511 31.8916 2.45087 29.667 2.45077C27.4421 2.45079 25.302 3.30489 23.6895 4.83652C23.5682 4.95489 23.3744 4.95369 23.2549 4.83359L22.0938 3.66367C22.0333 3.60278 21.9995 3.51991 22 3.43417C22.0006 3.34832 22.0354 3.26581 22.0967 3.20566Z" fill="white"/>
<rect opacity="0.35" x="42.833" y="0.5" width="21" height="10.3333" rx="2.16667" stroke="white"/>
<path opacity="0.4" d="M65.333 3.66666V7.66666C66.1377 7.32789 66.661 6.5398 66.661 5.66666C66.661 4.79353 66.1377 4.00544 65.333 3.66666Z" fill="white"/>
<rect x="44.333" y="2" width="18" height="7.33333" rx="1.33333" fill="white"/>
</svg>
