<svg width="75" height="60" viewBox="0 0 75 60" fill="none" xmlns="http://www.w3.org/2000/svg">
<path d="M30 57.5625V36.1875L35.25 21.1875C35.5625 20.5 36 19.9375 36.5625 19.5C37.1875 19 37.9375 18.75 38.8125 18.75H66.1875C67.0625 18.75 67.8125 19 68.4375 19.5C69.0625 19.9375 69.5 20.5 69.75 21.1875L75 36.1875V57.5625C75 58.25 74.75 58.8438 74.25 59.3438C73.8125 59.7812 73.25 60 72.5625 60H69.9375C69.25 60 68.6562 59.7812 68.1563 59.3438C67.7188 58.8438 67.5 58.25 67.5 57.5625V54.375H37.5V57.5625C37.5 58.25 37.25 58.8438 36.75 59.3438C36.3125 59.7812 35.75 60 35.0625 60H32.4375C31.75 60 31.1563 59.7812 30.6563 59.3438C30.2188 58.8438 30 58.25 30 57.5625ZM37.5 31.875H67.5L64.875 24.375H40.125L37.5 31.875ZM41.25 46.875C42.3125 46.875 43.1875 46.5313 43.875 45.8438C44.625 45.0938 45 44.1875 45 43.125C45 42.0625 44.625 41.1875 43.875 40.5C43.1875 39.75 42.3125 39.375 41.25 39.375C40.1875 39.375 39.2812 39.75 38.5312 40.5C37.8438 41.1875 37.5 42.0625 37.5 43.125C37.5 44.1875 37.8438 45.0938 38.5312 45.8438C39.2812 46.5313 40.1875 46.875 41.25 46.875ZM63.75 46.875C64.8125 46.875 65.6875 46.5313 66.375 45.8438C67.125 45.0938 67.5 44.1875 67.5 43.125C67.5 42.0625 67.125 41.1875 66.375 40.5C65.6875 39.75 64.8125 39.375 63.75 39.375C62.6875 39.375 61.7813 39.75 61.0313 40.5C60.3438 41.1875 60 42.0625 60 43.125C60 44.1875 60.3438 45.0938 61.0313 45.8438C61.7813 46.5313 62.6875 46.875 63.75 46.875ZM7.5 60V56.25L11.25 52.5C8.125 52.5 5.46875 51.4063 3.28125 49.2188C1.09375 47.0313 0 44.375 0 41.25V11.25C0 7.125 1.84375 4.21875 5.53125 2.53125C9.21875 0.84375 15.5 0 24.375 0C33.625 0 40 0.8125 43.5 2.4375C47 4.0625 48.75 7 48.75 11.25V15H41.25V11.25H7.5V33.75H26.25V60H7.5ZM11.25 45C12.3125 45 13.1875 44.6562 13.875 43.9688C14.625 43.2188 15 42.3125 15 41.25C15 40.1875 14.625 39.3125 13.875 38.625C13.1875 37.875 12.3125 37.5 11.25 37.5C10.1875 37.5 9.28125 37.875 8.53125 38.625C7.84375 39.3125 7.5 40.1875 7.5 41.25C7.5 42.3125 7.84375 43.2188 8.53125 43.9688C9.28125 44.6562 10.1875 45 11.25 45ZM35.625 48.75H69.375V37.5H35.625V48.75Z" fill="white"/>
</svg>
