<svg width="60" height="60" viewBox="0 0 60 60" fill="none" xmlns="http://www.w3.org/2000/svg">
<rect x="0.5" y="0.5" width="59" height="59" rx="27.5" stroke="#EBEBEB"/>
<path fill-rule="evenodd" clip-rule="evenodd" d="M42 30.2727C42 29.4218 41.9221 28.6037 41.7774 27.8182H30.2449V32.46H36.8349C36.551 33.96 35.6883 35.2309 34.3915 36.0818V39.0928H38.3488C40.6642 37.0037 42 33.9273 42 30.2727Z" fill="#1877F2"/>
<path fill-rule="evenodd" clip-rule="evenodd" d="M30.2449 42C33.551 42 36.3228 40.9255 38.3488 39.0928L34.3915 36.0818C33.295 36.8018 31.8924 37.2273 30.2449 37.2273C27.0557 37.2273 24.3562 35.1164 23.3933 32.28H19.3024V35.3891C21.3173 39.3109 25.4583 42 30.2449 42Z" fill="#02AA2F"/>
<path fill-rule="evenodd" clip-rule="evenodd" d="M23.3933 32.28C23.1484 31.56 23.0093 30.7909 23.0093 30C23.0093 29.2091 23.1484 28.44 23.3933 27.72V24.6109H19.3024C18.4731 26.2309 18 28.0637 18 30C18 31.9364 18.4731 33.7691 19.3024 35.3891L23.3933 32.28Z" fill="#FFCC00"/>
<path fill-rule="evenodd" clip-rule="evenodd" d="M30.2449 22.7727C32.0427 22.7727 33.6568 23.3782 34.9258 24.5673L38.4379 21.1255C36.3173 19.1891 33.5455 18 30.2449 18C25.4583 18 21.3173 20.6891 19.3024 24.6109L23.3933 27.72C24.3562 24.8837 27.0557 22.7727 30.2449 22.7727Z" fill="#F56317"/>
</svg>
