<svg width="60" height="60" viewBox="0 0 60 60" fill="none" xmlns="http://www.w3.org/2000/svg">
<rect x="0.5" y="0.5" width="59" height="59" rx="27.5" stroke="#EBEBEB"/>
<path d="M40.0599 36.9826C39.6828 37.856 39.2366 38.66 38.7195 39.3992C38.0147 40.4069 37.4376 41.1044 36.9928 41.4917C36.3034 42.1275 35.5647 42.4531 34.7737 42.4716C34.2058 42.4716 33.521 42.3096 32.7239 41.9809C31.9241 41.6537 31.1891 41.4917 30.5171 41.4917C29.8123 41.4917 29.0563 41.6537 28.2478 41.9809C27.438 42.3096 26.7857 42.4809 26.2869 42.4979C25.5284 42.5303 24.7723 42.1954 24.0176 41.4917C23.536 41.0704 22.9335 40.3482 22.2117 39.3251C21.4373 38.2326 20.8007 36.9656 20.3019 35.5212C19.7678 33.9611 19.5 32.4503 19.5 30.9877C19.5 29.3123 19.861 27.8673 20.5842 26.6564C21.1525 25.6837 21.9086 24.9164 22.8548 24.3532C23.8011 23.7899 24.8236 23.5029 25.9247 23.4845C26.5271 23.4845 27.3172 23.6714 28.299 24.0387C29.2781 24.4072 29.9067 24.5941 30.1824 24.5941C30.3884 24.5941 31.0868 24.3756 32.2707 23.9399C33.3902 23.5359 34.3351 23.3687 35.1092 23.4345C37.2067 23.6043 38.7826 24.4334 39.8306 25.9272C37.9546 27.067 37.0267 28.6634 37.0451 30.7113C37.0621 32.3065 37.6392 33.6339 38.7733 34.6879C39.2873 35.1771 39.8614 35.5552 40.5 35.8237C40.3615 36.2264 40.2153 36.6122 40.0599 36.9826ZM35.2492 18.0001C35.2492 19.2504 34.7937 20.4178 33.8858 21.4983C32.79 22.7829 31.4647 23.5251 30.0275 23.408C30.0092 23.258 29.9986 23.1001 29.9986 22.9343C29.9986 21.734 30.5197 20.4495 31.445 19.3992C31.907 18.8674 32.4946 18.4252 33.2071 18.0725C33.9181 17.7251 34.5906 17.5329 35.2231 17.5C35.2415 17.6671 35.2492 17.8343 35.2492 18.0001V18.0001Z" fill="black"/>
</svg>
