<svg width="67" height="12" viewBox="0 0 67 12" fill="none" xmlns="http://www.w3.org/2000/svg">
<path d="M2 7.00033C2.55228 7.00033 3 7.44804 3 8.00033V10.0003C2.99982 10.5525 2.55218 11.0003 2 11.0003H1C0.447824 11.0003 0.000175969 10.5525 0 10.0003V8.00033C0 7.44804 0.447715 7.00033 1 7.00033H2ZM6.66699 5.00033C7.21913 5.0005 7.66699 5.44815 7.66699 6.00033V10.0003C7.66682 10.5524 7.21902 11.0002 6.66699 11.0003H5.66699C5.11482 11.0003 4.66717 10.5525 4.66699 10.0003V6.00033C4.66699 5.44804 5.11471 5.00033 5.66699 5.00033H6.66699ZM11.333 2.66634C11.8852 2.66634 12.3328 3.11421 12.333 3.66634V10.0003C12.3328 10.5525 11.8852 11.0003 11.333 11.0003H10.333C9.78098 11.0002 9.33318 10.5524 9.33301 10.0003V3.66634C9.33318 3.11431 9.78098 2.66652 10.333 2.66634H11.333ZM16 0.333334C16.5523 0.333334 17 0.781049 17 1.33333V10.0003C16.9998 10.5525 16.5522 11.0003 16 11.0003H15C14.4478 11.0003 14.0002 10.5525 14 10.0003V1.33333C14 0.781049 14.4477 0.333334 15 0.333334H16Z" fill="black"/>
<path d="M27.4482 8.59342C28.7289 7.51115 30.6051 7.51115 31.8857 8.59342C31.9501 8.65163 31.9875 8.73424 31.9893 8.82096C31.9909 8.9076 31.9564 8.99073 31.8945 9.05143L29.8896 11.0739C29.8309 11.1333 29.7506 11.1667 29.667 11.1667C29.5834 11.1666 29.5031 11.1333 29.4443 11.0739L27.4385 9.05143C27.3769 8.99073 27.343 8.90739 27.3447 8.82096C27.3466 8.73428 27.3839 8.65158 27.4482 8.59342ZM24.7725 5.89616C27.5316 3.33178 31.8043 3.33183 34.5635 5.89616C34.6258 5.95629 34.6612 6.03911 34.6621 6.12565C34.6629 6.212 34.6293 6.29485 34.5684 6.35612L33.4092 7.52702C33.2897 7.64632 33.0971 7.64818 32.9746 7.5319C32.0685 6.71214 30.8893 6.25839 29.667 6.25846C28.4456 6.25899 27.2677 6.71283 26.3623 7.5319C26.2398 7.64825 26.0462 7.64652 25.9268 7.52702L24.7686 6.35612C24.7075 6.29492 24.6731 6.21206 24.6738 6.12565C24.6746 6.03918 24.7103 5.95628 24.7725 5.89616ZM22.0967 3.20573C26.3285 -0.846339 33.0044 -0.846186 37.2363 3.20573C37.2976 3.26593 37.3325 3.3484 37.333 3.43424C37.3334 3.52001 37.2997 3.60288 37.2393 3.66374L36.0791 4.83366C35.9595 4.95375 35.765 4.95483 35.6436 4.83659C34.0312 3.30518 31.8916 2.45094 29.667 2.45085C27.4421 2.45086 25.302 3.30496 23.6895 4.83659C23.5682 4.95496 23.3744 4.95376 23.2549 4.83366L22.0938 3.66374C22.0333 3.60285 21.9995 3.51998 22 3.43424C22.0006 3.3484 22.0354 3.26588 22.0967 3.20573Z" fill="black"/>
<rect opacity="0.35" x="42.833" y="0.5" width="21" height="10.3333" rx="2.16667" stroke="black"/>
<path opacity="0.4" d="M65.333 3.66667V7.66667C66.1377 7.32789 66.661 6.5398 66.661 5.66667C66.661 4.79353 66.1377 4.00544 65.333 3.66667Z" fill="black"/>
<rect x="44.333" y="2" width="18" height="7.33333" rx="1.33333" fill="black"/>
</svg>
